<?xml version="1.0" standalone="no"?>
<!DOCTYPE svg PUBLIC "-//W3C//DTD SVG 20010904//EN"
 "http://www.w3.org/TR/2001/REC-SVG-20010904/DTD/svg10.dtd">
<svg version="1.0" xmlns="http://www.w3.org/2000/svg"
 width="188.000000pt" height="192.000000pt" viewBox="0 0 188.000000 192.000000"
 preserveAspectRatio="xMidYMid meet">

<g transform="translate(0.000000,192.000000) scale(0.100000,-0.100000)"
fill="#000000" stroke="none">
<path d="M0 960 l0 -960 940 0 940 0 0 960 0 960 -940 0 -940 0 0 -960z m1338
696 c3 -25 -7 -39 -75 -103 -43 -41 -106 -95 -140 -120 l-62 -46 43 -56 c23
-31 46 -63 51 -71 20 -35 -23 11 -56 60 -19 27 -38 50 -43 50 -17 0 -216 -132
-216 -144 1 -6 7 -22 15 -36 8 -14 14 -29 14 -35 0 -5 -9 7 -20 28 -11 20 -24
37 -30 37 -6 0 -51 -24 -100 -52 -86 -51 -89 -54 -83 -83 4 -16 12 -41 19 -55
7 -14 15 -36 19 -50 3 -14 -5 -1 -19 29 -14 29 -25 59 -25 67 0 27 -22 23
-104 -18 -76 -39 -84 -45 -80 -68 4 -24 4 -24 -5 -3 -10 21 -12 22 -43 9 -18
-8 -70 -24 -116 -37 -66 -18 -87 -20 -107 -11 -32 15 -34 66 -4 102 17 21 19
22 10 3 -6 -12 -11 -36 -11 -54 l0 -32 47 5 c27 3 83 20 126 38 71 29 78 35
74 56 -3 15 1 24 8 24 8 0 11 -8 8 -21 -5 -19 0 -18 63 14 174 88 574 344 699
448 60 50 135 122 135 130 0 5 -21 9 -47 10 -37 0 -43 2 -28 9 11 5 34 8 50 7
25 -2 31 -7 33 -31z m-593 -56 c-27 -12 -43 -12 -25 0 8 5 22 9 30 9 10 0 8
-3 -5 -9z m126 -13 c-10 -9 -11 -8 -5 6 3 10 9 15 12 12 3 -3 0 -11 -7 -18z
m253 -12 c11 -8 16 -15 10 -15 -5 0 -18 7 -28 15 -11 8 -16 15 -10 15 5 0 18
-7 28 -15z m-474 -9 c0 -2 -7 -7 -16 -10 -8 -3 -12 -2 -9 4 6 10 25 14 25 6z
m275 -56 c33 -33 57 -60 54 -60 -2 0 -31 27 -64 60 -33 33 -57 60 -54 60 2 0
31 -27 64 -60z m-316 36 c-27 -25 -99 -73 -84 -56 11 13 34 31 50 41 27 17 44
25 34 15z m157 -82 c-26 -23 -27 -28 -17 -51 6 -14 10 -27 8 -30 -2 -2 -10 10
-17 28 -12 29 -11 32 16 55 39 31 47 30 10 -2z m536 -56 c31 -45 14 -32 -28
20 -21 26 -28 38 -15 27 13 -11 32 -32 43 -47z m268 -18 c0 -33 -25 -71 -84
-130 -42 -41 -55 -59 -51 -75 5 -18 5 -18 -5 -3 -10 16 -16 13 -63 -25 -29
-23 -64 -51 -80 -62 l-27 -20 16 -48 c9 -26 14 -50 12 -53 -3 -2 -11 16 -18
41 -9 32 -17 44 -26 41 -15 -6 -236 -156 -244 -166 -3 -4 -51 -35 -107 -69
-57 -35 -103 -65 -103 -68 0 -3 16 -29 36 -57 26 -38 28 -43 7 -19 -15 17 -35
41 -43 53 l-15 21 -75 -43 c-41 -23 -76 -46 -78 -50 -2 -5 -10 -8 -18 -8 -10
0 -144 -60 -173 -77 -2 -2 4 -13 15 -25 l19 -23 -25 22 -25 21 -59 -25 c-39
-16 -81 -25 -120 -26 l-61 -2 -3 35 c-2 21 3 43 13 55 l17 20 -8 -20 c-4 -11
-9 -33 -12 -49 l-5 -29 57 7 c41 4 95 25 201 78 127 64 144 75 139 93 -4 16 1
24 23 33 l28 13 -25 -20 c-14 -11 -21 -23 -17 -28 11 -10 157 67 166 87 3 8
13 16 22 16 9 1 57 28 107 60 66 42 90 64 89 77 -1 11 9 25 23 34 l25 15 -22
-20 c-13 -11 -23 -23 -23 -26 0 -16 32 1 138 72 63 42 134 89 156 104 23 15
41 33 41 40 1 7 6 12 13 11 24 -5 256 198 241 211 -2 2 -13 8 -24 14 -19 11
-18 11 8 12 21 0 27 -5 27 -20z m-988 -25 c-2 -19 -6 -35 -8 -35 -2 0 -4 16
-4 35 0 19 4 35 8 35 4 0 6 -16 4 -35z m192 -11 c3 -8 2 -12 -4 -9 -6 3 -10
10 -10 16 0 14 7 11 14 -7z m-357 -56 c-3 -7 -5 -2 -5 12 0 14 2 19 5 13 2 -7
2 -19 0 -25z m170 -10 c-3 -7 -5 -2 -5 12 0 14 2 19 5 13 2 -7 2 -19 0 -25z
m-243 -57 c-9 -23 -18 -40 -20 -38 -2 2 4 22 13 45 9 23 18 40 20 38 2 -2 -4
-22 -13 -45z m63 -13 c-3 -7 -5 -2 -5 12 0 14 2 19 5 13 2 -7 2 -19 0 -25z
m773 2 c6 -11 8 -20 6 -20 -3 0 -10 9 -16 20 -6 11 -8 20 -6 20 3 0 10 -9 16
-20z m304 -185 l6 -40 -14 42 c-7 23 -16 54 -19 70 l-6 28 14 -30 c7 -17 16
-48 19 -70z m-565 15 c11 -24 11 -24 -3 -6 -9 11 -16 24 -16 30 0 12 5 7 19
-24z m-602 4 c-3 -3 -12 -4 -19 -1 -8 3 -5 6 6 6 11 1 17 -2 13 -5z m1362 -23
c45 -29 -63 -161 -239 -293 l-85 -64 -5 -70 -6 -69 -4 62 -5 61 -147 -96 c-81
-54 -145 -102 -143 -109 2 -7 -2 -10 -9 -7 -12 5 -126 -51 -126 -62 0 -2 18
-13 40 -24 22 -11 40 -23 40 -25 0 -3 -21 6 -48 19 l-47 24 -40 -21 c-39 -20
-40 -21 -15 -29 21 -6 19 -7 -8 -3 -24 3 -50 -4 -95 -26 -100 -51 -237 -100
-258 -94 -28 9 -24 21 22 68 l41 42 -32 -43 c-18 -24 -30 -46 -26 -49 8 -8
276 126 276 138 0 5 3 8 8 7 4 -1 24 7 45 17 l37 19 -22 25 -23 24 25 -16 c33
-23 37 -22 104 19 l57 36 -23 27 c-13 14 -30 35 -37 46 -7 11 5 0 27 -24 l40
-44 61 38 c34 21 64 42 67 46 3 5 -2 22 -11 38 -8 17 -15 34 -15 38 1 4 10 -9
21 -30 23 -43 19 -44 137 35 66 45 72 51 72 83 0 27 4 35 18 34 10 0 12 -3 5
-6 -7 -2 -13 -16 -13 -30 0 -25 0 -25 28 -8 122 78 302 235 302 265 0 9 -5 21
-12 28 -14 14 0 16 21 3z m-182 -98 c-3 -10 -5 -4 -5 12 0 17 2 24 5 18 2 -7
2 -21 0 -30z m-1019 -48 c0 -5 -6 4 -13 20 -8 17 -14 37 -14 45 0 8 7 -1 14
-20 7 -19 13 -39 13 -45z m-181 -2 c-3 -10 -5 -4 -5 12 0 17 2 24 5 18 2 -7 2
-21 0 -30z m10 -45 c-3 -8 -6 -5 -6 6 -1 11 2 17 5 13 3 -3 4 -12 1 -19z m742
-63 c0 -5 -6 1 -14 15 -8 14 -14 30 -14 35 0 6 6 -1 14 -15 8 -14 14 -29 14
-35z m-732 23 c-3 -8 -6 -5 -6 6 -1 11 2 17 5 13 3 -3 4 -12 1 -19z m883 -58
c-8 -5 -19 -10 -25 -10 -5 0 -3 5 5 10 8 5 20 10 25 10 6 0 3 -5 -5 -10z m285
-90 c-8 -25 -12 -34 -10 -20 3 14 9 48 13 75 5 39 8 43 10 20 1 -16 -4 -50
-13 -75z m-388 28 c-3 -8 -6 -5 -6 6 -1 11 2 17 5 13 3 -3 4 -12 1 -19z m-682
-58 c-10 -11 -21 -18 -23 -15 -3 3 3 12 14 20 27 20 30 18 9 -5z m248 -25 c21
-24 31 -42 23 -39 -12 5 -72 84 -63 84 1 0 20 -20 40 -45z m98 -102 c13 -16
12 -17 -3 -4 -10 7 -18 15 -18 17 0 8 8 3 21 -13z m499 3 c-66 -18 -107 -42
-163 -95 -40 -37 -46 -40 -27 -14 43 59 156 123 215 122 11 -1 0 -6 -25 -13z
m-650 -83 c0 -9 -62 32 -83 56 -15 16 -4 11 31 -14 28 -20 52 -39 52 -42z
m240 73 c0 -2 -8 -10 -17 -17 -16 -13 -17 -12 -4 4 13 16 21 21 21 13z m63
-173 c-7 -2 -19 -2 -25 0 -7 3 -2 5 12 5 14 0 19 -2 13 -5z"/>
</g>
</svg>
